<svg width="22" height="22" viewBox="0 0 22 22" fill="none" xmlns="http://www.w3.org/2000/svg">
<g clip-path="url(#clip0_254_100)">
<path d="M14.0345 7.97064C13.7499 7.97064 13.5193 8.20128 13.5193 8.48586V18.2236C13.5193 18.5079 13.7499 18.7388 14.0345 18.7388C14.3191 18.7388 14.5497 18.5079 14.5497 18.2236V8.48586C14.5497 8.20128 14.3191 7.97064 14.0345 7.97064Z" fill="white"/>
<path d="M7.95492 7.97064C7.67034 7.97064 7.4397 8.20128 7.4397 8.48586V18.2236C7.4397 18.5079 7.67034 18.7388 7.95492 18.7388C8.2395 18.7388 8.47014 18.5079 8.47014 18.2236V8.48586C8.47014 8.20128 8.2395 7.97064 7.95492 7.97064Z" fill="white"/>
<path d="M3.5241 6.54955V19.2435C3.5241 19.9938 3.79922 20.6984 4.27983 21.204C4.75822 21.7109 5.42398 21.9987 6.12073 21.9999H15.8689C16.5658 21.9987 17.2316 21.7109 17.7098 21.204C18.1904 20.6984 18.4655 19.9938 18.4655 19.2435V6.54955C19.4209 6.29596 20.0399 5.37299 19.9121 4.39267C19.7841 3.41254 18.9491 2.67936 17.9605 2.67915H15.3227V2.03513C15.3257 1.49354 15.1115 0.973492 14.7281 0.590901C14.3447 0.20851 13.8239 -0.00442102 13.2823 6.66064e-06H8.7073C8.16572 -0.00442102 7.64486 0.20851 7.26147 0.590901C6.87807 0.973492 6.66393 1.49354 6.66695 2.03513V2.67915H4.02906C3.04048 2.67936 2.20546 3.41254 2.07746 4.39267C1.94966 5.37299 2.56873 6.29596 3.5241 6.54955ZM15.8689 20.9695H6.12073C5.23983 20.9695 4.55454 20.2128 4.55454 19.2435V6.59483H17.4351V19.2435C17.4351 20.2128 16.7498 20.9695 15.8689 20.9695ZM7.69739 2.03513C7.69397 1.76685 7.79943 1.50864 7.98982 1.31925C8.18001 1.12987 8.43883 1.02582 8.7073 1.03045H13.2823C13.5508 1.02582 13.8096 1.12987 13.9998 1.31925C14.1902 1.50844 14.2956 1.76685 14.2922 2.03513V2.67915H7.69739V2.03513ZM4.02906 3.7096H17.9605C18.4728 3.7096 18.8879 4.12479 18.8879 4.63699C18.8879 5.1492 18.4728 5.56439 17.9605 5.56439H4.02906C3.51686 5.56439 3.10166 5.1492 3.10166 4.63699C3.10166 4.12479 3.51686 3.7096 4.02906 3.7096Z" fill="white"/>
<path d="M10.9947 7.97064C10.7101 7.97064 10.4795 8.20128 10.4795 8.48586V18.2236C10.4795 18.5079 10.7101 18.7388 10.9947 18.7388C11.2793 18.7388 11.5099 18.5079 11.5099 18.2236V8.48586C11.5099 8.20128 11.2793 7.97064 10.9947 7.97064Z" fill="white"/>
</g>
<defs>
<clipPath id="clip0_254_100">
<rect width="22" height="22" fill="white"/>
</clipPath>
</defs>
</svg>
